<?xml version="1.0" encoding="UTF-8"?>
<svg width="32px" height="32px" viewBox="0 0 32 32" version="1.1" xmlns="http://www.w3.org/2000/svg" xmlns:xlink="http://www.w3.org/1999/xlink">
    <title>error</title>
    <g id="error" stroke="none" fill="none" fill-rule="evenodd" stroke-width="1">
        <g id="Group" transform="translate(0.175, 7.9047)" fill="#FF5C5C">
            <path d="M14.0855781,9.51275524 C16.0434457,9.47460418 18.0020625,9.50086057 19.9582117,9.5914363 C22.7018086,9.71042707 25.4974027,9.92444306 28.2015172,10.4034019 C29.0981149,10.5621737 30.4054898,10.8116094 31.237003,11.1789785 C29.7167484,12.6798659 23.9017879,14.3520806 21.7522884,14.7596273 C21.716243,14.590767 21.660324,14.442392 21.5405985,14.3157798 C20.7733325,13.504431 18.5318162,13.1984736 17.4864979,13.1085587 C16.0122034,12.9178475 10.3415213,13.0085994 9.90866736,14.7662355 C9.53503724,14.6940304 8.87344004,14.5206766 8.51029747,14.4293079 C6.43728702,13.9076604 1.90534178,12.6044008 0.401787884,11.1765115 C1.34813539,10.7864103 2.61598372,10.5384725 3.62838519,10.368643 C7.0540257,9.79391005 10.6161366,9.59174468 14.0855781,9.51275524 Z" id="Path"></path>
            <path d="M14.1291587,6.03237416 C14.1503541,6.03122875 14.1715496,6.03043577 14.1927891,6.02990712 C16.4819401,5.97651326 18.7723249,6.03611878 21.0556152,6.20854747 L22.2632702,6.30507053 C22.420231,6.31828684 22.8493835,6.34714243 22.989291,6.3833551 C23.5009779,6.51569434 24.0548794,6.70578882 24.5556821,6.8760148 C26.0339865,7.37211074 27.4841332,7.94825342 28.8998208,8.60188768 C29.671978,8.9663933 30.8048982,9.49011131 31.4849588,10.0177061 C31.6294491,10.1298244 31.6257476,10.3923442 31.625,10.5651254 C30.4765672,10.1159032 29.0055776,9.82457187 27.7792389,9.62676788 C24.4386004,9.08798328 20.947567,8.8851571 17.5661681,8.8075774 C14.5739544,8.75127595 11.5807712,8.8405741 8.59723841,9.07511942 C5.84068621,9.29508274 2.58544643,9.62359597 -4.4408921e-16,10.580236 C0.012999279,10.3910226 0.0244562706,10.172469 0.168814365,10.0322881 C0.370413353,9.83646654 0.72809182,9.64579935 0.97565097,9.50927495 C2.90342201,8.44615558 4.96902948,7.59916681 7.05041234,6.88716055 C7.45519667,6.7486537 8.28957412,6.45533989 8.70057166,6.37859723 C9.01171711,6.32048955 9.77290201,6.27202978 10.1213268,6.24299797 C11.4548765,6.13317049 12.7914227,6.06294787 14.1291587,6.03237416 Z" id="Path"></path>
            <path d="M15.3081272,0.0180754679 C15.4506786,-0.000559518551 15.8244409,-0.00122033367 15.9739106,0.000762111692 C17.3626302,0.0228333368 18.7080335,0.487474476 19.8142502,1.32701806 C21.1867537,2.36559916 22.0908866,3.90626759 22.3281785,5.61073006 C20.3343535,5.4259221 18.3337424,5.32305521 16.3314569,5.30239372 C14.1444934,5.28450766 11.4775702,5.37107444 9.30986329,5.62412258 C9.8225196,2.5136658 12.1548987,0.297996753 15.3081272,0.0180754679 Z" id="Path"></path>
            <path d="M15.6514844,13.7423685 C16.1796517,13.7363771 16.7078191,13.7518842 17.2347085,13.7888899 C18.1172053,13.8590244 20.2609406,14.1298705 20.9183076,14.6885677 C21.002913,14.7604643 21.0762378,14.8562385 21.0817019,14.9713084 C21.0860203,15.0614877 21.0448192,15.1414022 20.9857275,15.2069991 C20.3106463,15.9568921 17.053027,16.187032 16.0468828,16.2183106 C14.928372,16.229985 11.5809034,16.0115195 10.7375807,15.2635649 C10.6536362,15.1891131 10.577271,15.0880965 10.5743255,14.9712203 C10.5721594,14.87853 10.6167976,14.7977784 10.6786213,14.7317409 C11.3908496,13.9707022 14.616874,13.7640432 15.6514844,13.7423685 Z" id="Path"></path>
        </g>
    </g>
</svg>