<?xml version="1.0" encoding="UTF-8"?>
<svg width="32px" height="33px" viewBox="0 0 32 33" version="1.1" xmlns="http://www.w3.org/2000/svg" xmlns:xlink="http://www.w3.org/1999/xlink">
    <title>normal</title>
    <g id="normal" stroke="none" fill="none" transform="translate(0, 0.9524)" fill-rule="evenodd" stroke-width="1">
        <g transform="translate(0, 8)" fill="#FFFFFF" id="Path">
            <path d="M14.252527,9.38445221 C16.2336002,9.34681571 18.2154315,9.37271797 20.1947657,9.46207205 C22.9708811,9.57945795 25.79961,9.7905874 28.5357749,10.2630863 C29.4429995,10.4197167 30.7658701,10.6657881 31.6072387,11.0282024 C30.0689652,12.5088465 24.1850916,14.1585073 22.0101067,14.5605572 C21.9736341,14.3939744 21.9170523,14.2476006 21.7959078,14.1226961 C21.0195479,13.3222904 18.7514641,13.0204595 17.6937561,12.9317574 C16.2019875,12.7436183 10.4640939,12.8331463 10.0261096,14.5670763 C9.648051,14.4958451 8.97861222,14.3248293 8.61116552,14.234693 C6.51358479,13.7200812 1.92792479,12.4343993 0.406550064,11.0257686 C1.36411413,10.6409289 2.64698958,10.3963351 3.67139052,10.2287962 C7.13763333,9.66181495 10.7419641,9.46237627 14.252527,9.38445221 Z"></path>
            <path d="M14.2966241,5.95101268 C14.3180708,5.94988271 14.3395174,5.94910042 14.3610087,5.94857891 C16.6772918,5.8959052 18.9948233,5.95470678 21.3051763,6.12480985 L22.527145,6.22003107 C22.6859661,6.23306911 23.1202052,6.26153551 23.261771,6.29725976 C23.7795225,6.42781409 24.3399891,6.61534468 24.8467276,6.78327473 C26.3425536,7.27267959 27.8098881,7.84105156 29.2423551,8.48586995 C30.0236643,8.8454593 31.1700123,9.36211369 31.8581334,9.88259256 C32.0043361,9.99319867 32.0005909,10.2521778 32,10.4226285 C30.8377899,9.97946526 29.3493654,9.69206321 28.1084915,9.49692711 C24.7282583,8.96540934 21.1958474,8.76531878 17.7743706,8.68878543 C14.7466917,8.63324335 11.718032,8.72133709 8.69913693,8.95271898 C5.90991278,9.16971556 2.61609035,9.49379797 0,10.4375353 C0.0131533526,10.2508739 0.0247461379,10.0352681 0.170815233,9.89697787 C0.374803667,9.70379747 0.736721507,9.5157019 0.987214845,9.38101885 C2.93783473,8.33223828 5.02792475,7.49667326 7.13397715,6.79427016 C7.54355917,6.65763142 8.38782605,6.36827366 8.80369494,6.29256606 C9.11852824,6.23524211 9.88873505,6.18743594 10.2412895,6.1587957 C11.5906451,6.05044952 12.9430327,5.98117403 14.2966241,5.95101268 Z"></path>
            <path d="M15.4895663,0.0178316754 C15.6338073,-0.000551972059 16.0119997,-0.00120387446 16.163241,0.000751832731 C17.5684203,0.0225253727 18.92977,0.480899676 20.049098,1.30911994 C21.4378691,2.3336932 22.3527182,3.85358191 22.5928226,5.53505549 C20.5753658,5.35274012 18.5510426,5.25126065 16.525025,5.23087783 C14.3121406,5.21323301 11.6136077,5.29863222 9.42020818,5.54826737 C9.93894073,2.47976281 12.2989643,0.293977531 15.4895663,0.0178316754 Z"></path>
            <path d="M15.8369932,13.5570187 C16.3714206,13.5511081 16.905848,13.5664061 17.4389824,13.6029126 C18.3319389,13.6721012 20.5010829,13.9392942 21.1662412,14.490456 C21.2518494,14.561383 21.3260432,14.6558654 21.3315722,14.7693833 C21.3359417,14.8583462 21.2942524,14.937183 21.2344604,15.0018952 C20.5513776,15.7416739 17.2551475,15.9687099 16.2370781,15.9995665 C15.1053101,16.0110836 11.7181657,15.7955646 10.8648476,15.057698 C10.7799081,14.9842503 10.7026378,14.8845962 10.6995809,14.7692964 C10.6974656,14.6778562 10.7426329,14.5981937 10.8051893,14.5330469 C11.5258593,13.7822727 14.7901201,13.5784011 15.8369932,13.5570187 Z"></path>
        </g>
    </g>
</svg>